<mxfile host="app.diagrams.net" agent="Mozilla/5.0 (Windows NT 10.0; Win64; x64) AppleWebKit/537.36 (KHTML, like Gecko) Chrome/127.0.0.0 Safari/537.36" version="24.7.5">
  <diagram name="페이지-1" id="gAXBypCUn6MQNsv66fJl">
    <mxGraphModel dx="1434" dy="780" grid="1" gridSize="10" guides="1" tooltips="1" connect="1" arrows="1" fold="1" page="1" pageScale="1" pageWidth="827" pageHeight="1169" math="0" shadow="0">
      <root>
        <mxCell id="0" />
        <mxCell id="1" parent="0" />
        <mxCell id="ojGnQa6LKaohSp2yL-su-6" value="고객" style="whiteSpace=wrap;html=1;align=center;" vertex="1" parent="1">
          <mxGeometry x="370" y="500" width="100" height="40" as="geometry" />
        </mxCell>
        <mxCell id="ojGnQa6LKaohSp2yL-su-7" value="고객명" style="ellipse;whiteSpace=wrap;html=1;align=center;" vertex="1" parent="1">
          <mxGeometry x="290" y="420" width="100" height="40" as="geometry" />
        </mxCell>
        <mxCell id="ojGnQa6LKaohSp2yL-su-9" value="" style="endArrow=none;html=1;rounded=0;exitX=0.5;exitY=1;exitDx=0;exitDy=0;entryX=0.5;entryY=0;entryDx=0;entryDy=0;" edge="1" parent="1" source="ojGnQa6LKaohSp2yL-su-7" target="ojGnQa6LKaohSp2yL-su-6">
          <mxGeometry relative="1" as="geometry">
            <mxPoint x="340" y="520" as="sourcePoint" />
            <mxPoint x="500" y="520" as="targetPoint" />
          </mxGeometry>
        </mxCell>
        <mxCell id="ojGnQa6LKaohSp2yL-su-12" value="전화번호" style="ellipse;whiteSpace=wrap;html=1;align=center;fontStyle=4;" vertex="1" parent="1">
          <mxGeometry x="410" y="420" width="100" height="40" as="geometry" />
        </mxCell>
        <mxCell id="ojGnQa6LKaohSp2yL-su-13" value="이메일" style="ellipse;whiteSpace=wrap;html=1;align=center;fontStyle=4;" vertex="1" parent="1">
          <mxGeometry x="510" y="470" width="100" height="40" as="geometry" />
        </mxCell>
        <mxCell id="ojGnQa6LKaohSp2yL-su-14" value="" style="endArrow=none;html=1;rounded=0;exitX=0.5;exitY=1;exitDx=0;exitDy=0;entryX=0.5;entryY=0;entryDx=0;entryDy=0;" edge="1" parent="1" source="ojGnQa6LKaohSp2yL-su-12" target="ojGnQa6LKaohSp2yL-su-6">
          <mxGeometry relative="1" as="geometry">
            <mxPoint x="350" y="470" as="sourcePoint" />
            <mxPoint x="430" y="510" as="targetPoint" />
          </mxGeometry>
        </mxCell>
        <mxCell id="ojGnQa6LKaohSp2yL-su-15" value="" style="endArrow=none;html=1;rounded=0;entryX=0.5;entryY=0;entryDx=0;entryDy=0;" edge="1" parent="1" source="ojGnQa6LKaohSp2yL-su-13" target="ojGnQa6LKaohSp2yL-su-6">
          <mxGeometry relative="1" as="geometry">
            <mxPoint x="470" y="470" as="sourcePoint" />
            <mxPoint x="430" y="510" as="targetPoint" />
          </mxGeometry>
        </mxCell>
        <mxCell id="ojGnQa6LKaohSp2yL-su-16" value="고객코드" style="ellipse;whiteSpace=wrap;html=1;align=center;fontStyle=4;" vertex="1" parent="1">
          <mxGeometry x="550" y="530" width="100" height="40" as="geometry" />
        </mxCell>
        <mxCell id="ojGnQa6LKaohSp2yL-su-17" value="" style="endArrow=none;html=1;rounded=0;entryX=1;entryY=0.5;entryDx=0;entryDy=0;exitX=0;exitY=0.5;exitDx=0;exitDy=0;" edge="1" parent="1" source="ojGnQa6LKaohSp2yL-su-16" target="ojGnQa6LKaohSp2yL-su-6">
          <mxGeometry relative="1" as="geometry">
            <mxPoint x="521" y="504" as="sourcePoint" />
            <mxPoint x="430" y="510" as="targetPoint" />
          </mxGeometry>
        </mxCell>
        <mxCell id="ojGnQa6LKaohSp2yL-su-18" value="주소" style="ellipse;whiteSpace=wrap;html=1;align=center;" vertex="1" parent="1">
          <mxGeometry x="220" y="500" width="100" height="40" as="geometry" />
        </mxCell>
        <mxCell id="ojGnQa6LKaohSp2yL-su-19" value="" style="endArrow=none;html=1;rounded=0;exitX=1;exitY=0.5;exitDx=0;exitDy=0;entryX=0;entryY=0.5;entryDx=0;entryDy=0;" edge="1" parent="1" source="ojGnQa6LKaohSp2yL-su-18" target="ojGnQa6LKaohSp2yL-su-6">
          <mxGeometry relative="1" as="geometry">
            <mxPoint x="350" y="470" as="sourcePoint" />
            <mxPoint x="430" y="510" as="targetPoint" />
          </mxGeometry>
        </mxCell>
        <mxCell id="ojGnQa6LKaohSp2yL-su-20" value="기본주소" style="ellipse;whiteSpace=wrap;html=1;align=center;" vertex="1" parent="1">
          <mxGeometry x="90" y="460" width="100" height="40" as="geometry" />
        </mxCell>
        <mxCell id="ojGnQa6LKaohSp2yL-su-21" value="상세주소" style="ellipse;whiteSpace=wrap;html=1;align=center;" vertex="1" parent="1">
          <mxGeometry x="90" y="520" width="100" height="40" as="geometry" />
        </mxCell>
        <mxCell id="ojGnQa6LKaohSp2yL-su-22" value="" style="endArrow=none;html=1;rounded=0;exitX=1;exitY=0.5;exitDx=0;exitDy=0;entryX=0;entryY=0.5;entryDx=0;entryDy=0;" edge="1" parent="1" source="ojGnQa6LKaohSp2yL-su-20" target="ojGnQa6LKaohSp2yL-su-18">
          <mxGeometry relative="1" as="geometry">
            <mxPoint x="200" y="489.5" as="sourcePoint" />
            <mxPoint x="250" y="489.5" as="targetPoint" />
          </mxGeometry>
        </mxCell>
        <mxCell id="ojGnQa6LKaohSp2yL-su-23" value="" style="endArrow=none;html=1;rounded=0;exitX=1;exitY=0.5;exitDx=0;exitDy=0;" edge="1" parent="1" source="ojGnQa6LKaohSp2yL-su-21">
          <mxGeometry relative="1" as="geometry">
            <mxPoint x="200" y="490" as="sourcePoint" />
            <mxPoint x="220" y="520" as="targetPoint" />
          </mxGeometry>
        </mxCell>
        <mxCell id="ojGnQa6LKaohSp2yL-su-24" value="가입일" style="ellipse;whiteSpace=wrap;html=1;align=center;" vertex="1" parent="1">
          <mxGeometry x="260" y="590" width="100" height="40" as="geometry" />
        </mxCell>
        <mxCell id="ojGnQa6LKaohSp2yL-su-25" value="" style="endArrow=none;html=1;rounded=0;exitX=0.5;exitY=0;exitDx=0;exitDy=0;entryX=0.25;entryY=1;entryDx=0;entryDy=0;exitPerimeter=0;" edge="1" parent="1" source="ojGnQa6LKaohSp2yL-su-24" target="ojGnQa6LKaohSp2yL-su-6">
          <mxGeometry relative="1" as="geometry">
            <mxPoint x="330" y="530" as="sourcePoint" />
            <mxPoint x="380" y="530" as="targetPoint" />
          </mxGeometry>
        </mxCell>
      </root>
    </mxGraphModel>
  </diagram>
</mxfile>
